<?xml version="1.0" encoding="UTF-8" standalone="no"?><!DOCTYPE svg PUBLIC "-//W3C//DTD SVG 1.1//EN" "http://www.w3.org/Graphics/SVG/1.1/DTD/svg11.dtd"><svg width="100%" height="100%" viewBox="0 0 3573 2862" version="1.1" xmlns="http://www.w3.org/2000/svg" xmlns:xlink="http://www.w3.org/1999/xlink" xml:space="preserve" xmlns:serif="http://www.serif.com/" style="fill-rule:evenodd;clip-rule:evenodd;stroke-linejoin:round;stroke-miterlimit:2;"><g id="BG"></g><g id="graphics"><path d="M466.701,227.458c96.037,30.263 181.708,105.334 233.358,219.938l386.6,854.579l526.65,1168.64c150.383,333.72 542.825,482.325 876.529,331.937c153.3,-69.079 267.488,-189.25 331.646,-331.329c-0.288,0.4 -0.579,0.787 -0.858,1.192c0.279,-0.617 0.587,-1.192 0.858,-1.8l691.929,-1535.4l0.304,0.013c81.317,-180.425 75.221,-378.017 -0.266,-545.238c-209.296,-321.154 -368.346,-252.116 -407.705,-162.495c40.938,91.983 41.446,205.904 -10.212,320.52l0.071,0.305l-0.371,-0.346l-773.333,1702.85c-40.759,89.741 -168.259,89.741 -209.009,-0l-579.366,-1275.74l-266.35,-584.475c-81.317,-180.404 -233.384,-306.721 -408.663,-360.937c-55.583,-8.863 -104.229,-12.809 -146.592,-12.813c-248.516,-0.012 -281.862,135.717 -245.22,210.608Z" style="fill:url(#_Linear1);fill-rule:nonzero;"/><path d="M2305.25,390.621l-846.041,1860.22c-40.75,89.733 -168.246,89.733 -209.004,-0l-773.33,-1702.86c-125.82,-279.179 57.817,-554.241 381.655,-518.279c-148.942,-46.058 -314.6,-40.108 -467.913,28.971c-333.704,150.379 -482.304,542.829 -331.937,876.537l691.937,1535.42c150.388,333.721 542.833,482.325 876.538,331.95c153.3,-69.087 267.483,-189.262 331.637,-331.333c-0.279,0.4 -0.575,0.779 -0.854,1.183c0.279,-0.604 0.583,-1.192 0.854,-1.8l913.55,-2023.21c125.817,-279.171 453.517,-323.796 641.083,-57.396c-64.15,-142.071 -178.341,-262.254 -331.645,-331.334c-88.375,-39.825 -180.88,-58.683 -271.909,-58.683c-252.691,-0.004 -494.071,145.288 -604.621,390.621Z" style="fill:url(#_Linear2);fill-rule:nonzero;"/></g><defs><linearGradient id="_Linear1" x1="0" y1="0" x2="1" y2="0" gradientUnits="userSpaceOnUse" gradientTransform="matrix(-0.000127083,2489.77,-2489.77,-0.000127083,2013.32,159.142)"><stop offset="0" style="stop-color:#5500c4;stop-opacity:1"/><stop offset="1" style="stop-color:#ea63ff;stop-opacity:1"/></linearGradient><linearGradient id="_Linear2" x1="0" y1="0" x2="1" y2="0" gradientUnits="userSpaceOnUse" gradientTransform="matrix(-0.000127083,-2653.93,2653.93,-0.000127083,1756.71,2765.58)"><stop offset="0" style="stop-color:#6d1fff;stop-opacity:1"/><stop offset="1" style="stop-color:#0fffcb;stop-opacity:1"/></linearGradient></defs></svg>